HIERARCHY
ROOT pelvis
{
  OFFSET 0 100 0
  CHANNELS 6 Xposition Yposition Zposition Zrotation Xrotation Yrotation
  JOINT pelvis_right_femur
  {
    OFFSET -10.78128 -3.44521 -0.5502486
    CHANNELS 3 Zrotation Xrotation Yrotation
    JOINT right_femur_tibia
    {
      OFFSET -0.8047443 -44.0398 -0.1307829
      CHANNELS 3 Zrotation Xrotation Yrotation
      JOINT right_tibia_foot
      {
        OFFSET 3.006224 -47.83518 -5
        CHANNELS 3 Zrotation Xrotation Yrotation
        End Site
        {
          OFFSET 0 -5 15
        }
      }
    }
  }
  JOINT pelvis_left_femur
  {
    OFFSET 10.78128 -3.44521 -0.5502486
    CHANNELS 3 Zrotation Xrotation Yrotation
    JOINT left_femur_tibia
    {
      OFFSET 0.8047443 -44.0398 -0.1307829
      CHANNELS 3 Zrotation Xrotation Yrotation
      JOINT left_tibia_foot
      {
        OFFSET -4.370144 -48.10324 -4.275266
        CHANNELS 3 Zrotation Xrotation Yrotation
        End Site
        {
          OFFSET 0 -5 15
        }
      }
    }
  }
  JOINT pelvis_spine1
  {
    OFFSET 0 6.468898 -3.129235
    CHANNELS 3 Zrotation Xrotation Yrotation
    JOINT spine1
    {
      OFFSET 0 23.15396 4.99043
      CHANNELS 3 Zrotation Xrotation Yrotation
      JOINT spine2
      {
        OFFSET 0 20.79997 -5.064912
        CHANNELS 3 Zrotation Xrotation Yrotation
        JOINT neck
        {
          OFFSET 0 14.38658 9.616178
          CHANNELS 3 Zrotation Xrotation Yrotation
          End Site
          {
            OFFSET 0 20 0
          }
        }
      }
      JOINT right_manubrium
      {
        OFFSET -5.722621 16.35077 3.967754
        CHANNELS 3 Zrotation Xrotation Yrotation
        JOINT right_clavicle
        {
          OFFSET -13.16364 1.694482 -4.693211
          CHANNELS 3 Zrotation Xrotation Yrotation
          JOINT right_humerus
          {
            OFFSET -28.5034 -0.3100689 -2.792744
            CHANNELS 3 Zrotation Xrotation Yrotation
            JOINT right_radius
            {
              OFFSET -25.15693 0.02248979 -1.271978
              CHANNELS 3 Zrotation Xrotation Yrotation
              End Site
              {
                OFFSET -15 0 0
              }
            }
          }
        }
      }
      JOINT left_manubrium
      {
        OFFSET 5.722621 16.35077 3.967754
        CHANNELS 3 Zrotation Xrotation Yrotation
        JOINT left_clavicle
        {
          OFFSET 13.16364 1.694482 -4.693211
          CHANNELS 3 Zrotation Xrotation Yrotation
          JOINT left_humerus
          {
            OFFSET 29.39168 -1.063119 -2.237045
            CHANNELS 3 Zrotation Xrotation Yrotation
            JOINT left_radius
            {
              OFFSET 24.59957 -0.9528479 0.9047498
              CHANNELS 3 Zrotation Xrotation Yrotation
              End Site
              {
                OFFSET 15 -0 -0
              }
            }
          }
        }
      }
    }
  }
}
MOTION
Frames: 15
Frame Time: 0.0416666666667
353.5213 100.8278 3021.616 1.646163 -7.093254 6.05199 2.162885 17.72829 1.88414 -0 21.22831 -0 -3.685347 -10.02764 -0.6320023 0.3793624 -23.05811 -4.754295 -0 14.84363 -0 -3.161278 -7.434884 19.40195 -0.5791975 -0.6322955 8.429045 -1.560728 12.77301 -2.678919 1.551979 22.22712 4.215637 2.315305 -18.26264 5.428335 -1.930353 -26.09157 11.48677 85.27481 20.41318 -5.186086 -0 0 24.88741 -26.51446 10.3095 15.13236 3.414143 -17.69563 -5.103354 -95.09354 14.21316 31.82486 0 0 -3.046914 4.86908 10.64646 6.357577
355.2472 100.3939 3027.937 2.011422 -7.813495 6.15166 1.251549 17.10304 2.334206 -0 29.01366 -0 -2.657525 -7.11385 -1.324215 -0.7204101 -20.72377 -5.488796 -0 15.97263 -0 -3.855283 -7.904743 19.25089 -0.5800856 -0.647983 8.459432 -1.553664 12.80897 -2.715726 1.527914 22.17216 4.241672 2.335008 -18.25476 5.411525 -1.862992 -26.10031 11.53011 85.22692 20.52374 -5.248489 -0 0 24.92464 -26.61043 10.42006 15.17293 3.412765 -17.74315 -5.116221 -95.04481 14.16953 31.84057 0 0 -3.208209 4.831537 10.57718 6.411755
357.0076 100.5397 3034.392 2.419436 -8.503589 6.53483 0.3233089 15.21351 2.793226 -0 37.57251 -0 -1.531342 -3.690312 -2.27789 -2.077266 -17.05271 -6.455126 -0 17.6137 -0 -4.597722 -8.673148 18.95084 -0.5820565 -0.6675183 8.334856 -1.472559 12.82642 -2.888029 1.507705 22.12875 4.301964 2.360014 -18.28417 5.438705 -1.789398 -25.87004 11.55863 85.42926 20.69024 -5.774656 -0 0 24.47204 -26.53785 10.5438 15.0293 3.48472 -17.98864 -5.18096 -94.66715 14.22599 31.22652 0 0 -3.964866 4.961694 10.54724 6.251334
358.7864 101.2474 3040.885 2.809776 -8.948525 7.192459 -0.4860109 11.87907 3.165002 -0 45.71549 -0 -0.4844273 -0.2977956 -3.35112 -3.547152 -12.2188 -7.659246 -0 18.89154 -0 -5.136619 -9.850921 18.59795 -0.5834545 -0.6937421 8.058385 -1.317242 12.83131 -3.196069 1.489506 22.09481 4.394779 2.391387 -18.35475 5.505661 -1.712953 -25.41199 11.57462 85.88999 20.90363 -6.762823 -0 0 23.53709 -26.29612 10.6753 14.70168 3.62814 -18.43757 -5.300479 -93.96572 14.35147 29.9947 0 0 -5.308619 5.274565 10.55999 5.856243
360.5515 102.3664 3047.244 3.076836 -8.92549 8.049641 -0.9756644 7.109642 3.397263 -0 51.7303 -0 0.192309 2.295986 -4.313456 -4.90806 -6.676135 -9.072715 -0 19.30088 -0 -5.2072 -11.41145 18.31463 -0.5823317 -0.7319086 7.629623 -1.083543 12.83292 -3.648984 1.469145 22.06384 4.521418 2.432441 -18.4732 5.607604 -1.632071 -24.73122 11.58403 86.62871 21.15933 -8.235727 -0 0 22.11124 -25.88345 10.81488 14.18506 3.843356 -19.10951 -5.48111 -92.93239 14.49915 28.13416 0 0 -7.266657 5.795233 10.61464 5.194354
362.2552 103.6165 3053.296 3.095082 -8.306383 8.970302 -0.9549444 1.329712 3.45653 -0 53.68918 -0 0.1826538 3.363199 -4.887693 -5.875143 -1.24229 -10.53809 -0 18.69377 -0 -4.661858 -13.15322 18.17712 -0.5772654 -0.7869812 7.078424 -0.7804368 12.84366 -4.232448 1.440807 22.02461 4.678704 2.486546 -18.6389 5.731793 -1.541227 -23.87591 11.59728 87.61578 21.44695 -10.13277 -0 0 20.27911 -25.33254 10.96599 13.51035 4.116751 -19.98781 -5.718153 -91.62406 14.60141 25.75345 0 0 -9.76337 6.512188 10.69674 4.281724
363.8549 104.6614 3058.973 2.808823 -7.187457 9.823521 -0.4036536 -4.700706 3.280746 -0 50.61846 -0 -0.5924736 2.794467 -4.952657 -6.254226 3.276022 -11.74124 -0 17.17748 -0 -3.647619 -14.80799 18.09854 -0.5683878 -0.8600755 6.470964 -0.4356738 12.8736 -4.896315 1.400032 21.96619 4.855828 2.554357 -18.83939 5.858875 -1.4345 -22.94509 11.62473 88.75051 21.74996 -12.27457 -0 0 18.24399 -24.71444 11.13106 12.75343 4.417583 -20.99792 -5.989646 -90.18365 14.59956 23.117 0 0 -12.57235 7.356969 10.78116 3.208301
365.3295 105.2367 3064.346 2.283956 -5.840674 10.54439 0.4816247 -10.40716 2.826417 -0 43.40996 -0 -1.873521 1.225365 -4.65997 -6.100443 6.686758 -12.42763 -0 15.09334 -0 -2.526382 -16.23463 17.88554 -0.5569873 -0.9484314 5.860218 -0.07448693 12.92331 -5.591941 1.346899 21.88659 5.041645 2.633493 -19.06231 5.976798 -1.311516 -22.01741 11.6687 89.94073 22.05296 -14.49659 -0 0 16.1765 -24.08008 11.30445 11.97612 4.720556 -22.0641 -6.272592 -88.73891 14.47911 20.45186 0 0 -15.48033 8.261601 10.85322 2.062932
366.6714 105.2247 3069.547 1.644965 -4.525284 11.12479 1.45353 -15.68908 2.142889 -0 34.06624 -0 -3.301964 -0.5191992 -4.270396 -5.638728 9.413718 -12.58152 -0 13.02228 -0 -1.610886 -17.44179 17.40536 -0.5446032 -1.047729 5.259778 0.2935043 12.98476 -6.297729 1.285238 21.79259 5.230398 2.720396 -19.30273 6.085952 -1.177246 -21.11332 11.72345 91.15487 22.34279 -16.73454 -0 0 14.12898 -23.43478 11.47364 11.19475 5.018022 -23.15038 -6.554849 -87.34086 14.25944 17.83194 0 0 -18.39704 9.197313 10.91357 0.8833222
367.8832 104.6422 3074.73 1.010099 -3.427672 11.58261 2.335104 -20.53554 1.323426 -0 24.46035 -0 -4.606562 -1.832756 -3.971686 -5.080343 11.88845 -12.28703 -0 11.62293 -0 -1.101837 -18.43333 16.60975 -0.5326028 -1.152772 4.68343 0.6573595 13.04976 -6.990194 1.219481 21.69211 5.415645 2.810791 -19.55393 6.186841 -1.038108 -20.25343 11.78271 92.35673 22.60734 -18.91902 -0 0 12.15533 -22.78681 11.62592 10.4276 5.302534 -24.21826 -6.824636 -86.03564 13.96866 15.33028 0 0 -21.22726 10.13288 10.96447 -0.2904176
368.9875 103.6138 3080.056 0.4912598 -2.710106 11.94769 3.012712 -24.64025 0.4803772 -0 16.18255 -0 -5.582507 -2.350557 -3.860272 -4.579985 14.1892 -11.61736 -0 11.56238 -0 -1.134905 -19.10439 15.52444 -0.5214356 -1.257741 4.175138 0.991478 13.11624 -7.619306 1.153182 21.59099 5.583789 2.899023 -19.80186 6.270627 -0.9027984 -19.50606 11.8439 93.45063 22.83881 -20.88746 -0 0 10.40475 -22.17909 11.74844 9.730119 5.553492 -25.19103 -7.062719 -84.91917 13.63936 13.1441 0 0 -23.75909 11.00627 11.00723 -1.379852
370.0315 102.3606 3085.674 0.1901319 -2.507139 12.25224 3.446617 -27.4221 -0.2196801 -0 10.61875 -0 -6.075559 -1.967894 -3.975762 -4.246465 16.05678 -10.66828 -0 13.47722 -0 -1.748334 -19.25574 14.28325 -0.5105262 -1.356893 3.791465 1.264132 13.18698 -8.124346 1.089241 21.49394 5.717878 2.978743 -20.02932 6.323641 -0.7820466 -18.96054 11.90686 94.31303 23.03824 -22.43861 -0 0 9.065615 -21.67099 11.82991 9.174073 5.745105 -25.97777 -7.248974 -84.09812 13.3117 11.52084 0 0 -25.73317 11.74553 11.04596 -2.295159
371.072 101.1645 3091.672 0.1513554 -2.843308 12.516 3.716844 -28.37048 -0.5751283 -0 8.386931 -0 -6.062398 -0.9447065 -4.30299 -4.102166 17.07325 -9.584359 -0 17.74526 -0 -2.813889 -18.70086 13.11671 -0.4988604 -1.445461 3.566604 1.454229 13.26453 -8.465981 1.030381 21.40573 5.806208 3.044702 -20.22268 6.337286 -0.6860221 -18.67141 11.97095 94.86258 23.21005 -23.4437 -0 0 8.253086 -21.30409 11.86456 8.806082 5.861797 -26.52065 -7.373275 -83.62518 13.02171 10.60725 0 0 -26.98598 12.30527 11.0867 -2.981341
372.1456 100.2961 3098.038 0.3275057 -3.58546 12.72903 3.994622 -27.38363 -0.4373792 -0 8.882938 -0 -5.703928 0.1328619 -4.762836 -4.059463 16.89651 -8.535383 -0 24.28073 -0 -4.056603 -17.38223 12.26527 -0.4857583 -1.519388 3.503364 1.555471 13.34812 -8.634778 0.9794088 21.33113 5.845295 3.093412 -20.37224 6.311381 -0.6221374 -18.64178 12.03379 95.08204 23.35289 -23.87679 -0 0 7.979754 -21.09491 11.85448 8.637217 5.901908 -26.80649 -7.436761 -83.49071 12.78965 10.40858 0 0 -27.49057 12.67104 11.13241 -3.423487
373.2461 99.94557 3104.643 0.6098031 -4.507287 12.84188 4.42695 -24.71962 0.2298093 -0 10.77308 -0 -5.267693 0.5898892 -5.224973 -3.981047 15.35669 -7.686941 -0 32.55193 -0 -5.163765 -15.39038 11.91099 -0.4711097 -1.574708 3.599227 1.564461 13.43585 -8.628347 0.9386433 21.27303 5.834609 3.122377 -20.46759 6.247569 -0.5942556 -18.86293 12.09331 94.96931 23.46101 -23.73564 -0 0 8.238742 -21.05903 11.80805 8.672797 5.866217 -26.83162 -7.441903 -83.67763 12.62317 10.90025 0 0 -27.2544 12.82883 11.18022 -3.607069
